<svg xmlns="http://www.w3.org/2000/svg" viewBox="0 0 48 48" width="48" height="48">
  <rect width="48" height="48" rx="24" fill="url(#instagram-gradient)"/>
  <defs>
    <linearGradient id="instagram-gradient" x1="0" y1="0" x2="1" y2="1">
      <stop offset="0%" stop-color="#FD5949"/>
      <stop offset="45%" stop-color="#D6249F"/>
      <stop offset="100%" stop-color="#285AEB"/>
    </linearGradient>
  </defs>
  <path fill="#FFF" d="M24 16.5a7.5 7.5 0 1 0 0 15 7.5 7.5 0 0 0 0-15zm0 12.38a4.88 4.88 0 1 1 0-9.76 4.88 4.88 0 0 1 0 9.76z"/>
  <circle cx="32.5" cy="15.5" r="1.5" fill="#FFF"/>
  <path fill="none" stroke="#FFF" stroke-width="2" d="M31 24c0 3.87-3.13 7-7 7s-7-3.13-7-7 3.13-7 7-7 7 3.13 7 7z"/>
</svg>
