<?xml version="1.0" encoding="UTF-8"?>
<svg version="1.1" xmlns="http://www.w3.org/2000/svg" width="500" height="500">
<path d="M0 0 C165 0 330 0 500 0 C500 165 500 330 500 500 C335 500 170 500 0 500 C0 335 0 170 0 0 Z " fill="#FEFEFE" transform="translate(0,0)"/>
<path d="M0 0 C5.68269805 3.55822714 8.849534 7.66398837 11 14 C11.60409567 16.80749701 11.91098193 19.60682516 12.171875 22.46484375 C12.25145447 23.2841185 12.33103394 24.10339325 12.4130249 24.94749451 C13.33979181 35.47144896 13.30139795 46.00648105 13.25 56.5625 C13.2478952 57.64648071 13.24579041 58.73046143 13.24362183 59.84729004 C13.2064234 76.35495629 12.69397497 92.79643926 11.78662109 109.27709961 C11.03517943 123.0559961 10.64684182 136.8286594 10.375 150.625 C10.34444016 152.17048523 10.34444016 152.17048523 10.31326294 153.74719238 C10.20125586 159.49800728 10.09712803 165.24891536 10 171 C10.60346252 171.12343781 11.20692505 171.24687561 11.82867432 171.37405396 C13.02771393 171.62806473 13.02771393 171.62806473 14.25097656 171.88720703 C15.43460785 172.13423874 15.43460785 172.13423874 16.64215088 172.38626099 C20.31449351 173.34215758 23.45778114 175.02613387 26.75 176.875 C27.69939453 177.38353516 27.69939453 177.38353516 28.66796875 177.90234375 C42.27242593 185.34095547 48.4002256 199.70715933 52.96875 214.0390625 C57.70953037 231.72919668 55.31743893 249.19448187 46.25 265.0625 C39.52696727 273.83979273 32.08500579 278.68289077 22 283 C20.37771484 283.69609375 20.37771484 283.69609375 18.72265625 284.40625 C-10.57140945 295.83128395 -45.08376548 296.12379091 -76.19921875 296.203125 C-76.96936625 296.20595238 -77.73951374 296.20877975 -78.53299904 296.21169281 C-82.5963027 296.22648478 -86.65957259 296.23584368 -90.72290039 296.24023438 C-94.864274 296.24574098 -99.00532261 296.26987301 -103.14659405 296.29820633 C-106.38722102 296.31699962 -109.62777144 296.32204673 -112.86844826 296.32357025 C-114.39395772 296.32655137 -115.91946739 296.33442093 -117.44492149 296.34775543 C-134.08453894 296.48304431 -152.68313148 294.93976942 -165.2578125 282.80859375 C-165.83273438 282.21175781 -166.40765625 281.61492187 -167 281 C-167.55429688 280.45472656 -168.10859375 279.90945313 -168.6796875 279.34765625 C-180.34991801 267.00972598 -178.49847145 248.90271737 -178.13623047 233.16210938 C-177.3217852 214.2576379 -171.47204685 194.17329809 -157.4140625 180.90234375 C-148.67859687 174.01857067 -138.11884639 169.43750074 -128 165 C-128.48106201 164.60586914 -128.96212402 164.21173828 -129.45776367 163.80566406 C-131.42923113 161.49745236 -131.48130236 160.11753781 -131.67578125 157.109375 C-131.74104004 156.12646484 -131.80629883 155.14355469 -131.87353516 154.13085938 C-132.0415829 149.97054219 -132.09607692 145.81387686 -132.13842773 141.65063477 C-132.36839017 125.71458112 -134.96492105 111.01837147 -138.29101562 95.50439453 C-143.21959317 71.1432368 -147.05125774 41.00250942 -133 19 C-123.38115918 6.56506117 -123.38115918 6.56506117 -116.7890625 5.71484375 C-110.64993285 6.34648705 -106.98864334 8.26348603 -103 13 C-95.99459082 22.63243763 -96.648153 36.79612676 -96.0625 48.1875 C-95.98332648 49.63014089 -95.90388675 51.07276719 -95.82421875 52.51538086 C-95.27311119 62.72557222 -94.81939526 72.94015812 -94.37280083 83.15534782 C-94.27692896 85.34541283 -94.18042267 87.53544909 -94.08375549 89.72547913 C-94.0186172 91.20345941 -93.95350806 92.68144099 -93.88842773 94.15942383 C-93.85601392 94.89547379 -93.8236001 95.63152376 -93.79020405 96.38987827 C-93.59733108 100.78806812 -93.41121255 105.1864862 -93.22960472 109.58515453 C-94.23667398 136.96551963 -94.23667398 136.96551963 -87 162 C-81.11166769 166.1994842 -76.5871326 166.54552982 -69.47265625 166.390625 C-68.48373886 166.38496521 -67.49482147 166.37930542 -66.47593689 166.37347412 C-63.33761857 166.35120015 -60.20046943 166.30101998 -57.0625 166.25 C-54.92644886 166.22992342 -52.7903797 166.21167468 -50.65429688 166.1953125 C-45.4358034 166.15136511 -40.21798526 166.0845437 -35 166 C-34.99635437 165.21772537 -34.99270874 164.43545074 -34.98895264 163.62947083 C-34.6454919 96.49412251 -34.6454919 96.49412251 -32.0625 74.875 C-31.97713989 74.1592984 -31.89177979 73.4435968 -31.80383301 72.70620728 C-30.82552967 64.74950339 -29.48905378 56.87456775 -28 49 C-27.70029297 47.20949219 -27.70029297 47.20949219 -27.39453125 45.3828125 C-26.0336121 37.76531873 -24.06324656 30.48352997 -21.6875 23.125 C-21.41591064 22.25762207 -21.14432129 21.39024414 -20.86450195 20.49658203 C-17.68363594 10.98039256 -11.86577092 -2.21226237 0 0 Z " fill="#FDFDFE" transform="translate(311,53)"/>
<path d="M0 0 C5.68269805 3.55822714 8.849534 7.66398837 11 14 C11.60409567 16.80749701 11.91098193 19.60682516 12.171875 22.46484375 C12.25145447 23.2841185 12.33103394 24.10339325 12.4130249 24.94749451 C13.33979181 35.47144896 13.30139795 46.00648105 13.25 56.5625 C13.2478952 57.64648071 13.24579041 58.73046143 13.24362183 59.84729004 C13.2064234 76.35495629 12.69397497 92.79643926 11.78662109 109.27709961 C11.03517943 123.0559961 10.64684182 136.8286594 10.375 150.625 C10.34444016 152.17048523 10.34444016 152.17048523 10.31326294 153.74719238 C10.20125586 159.49800728 10.09712803 165.24891536 10 171 C10.60346252 171.12343781 11.20692505 171.24687561 11.82867432 171.37405396 C13.02771393 171.62806473 13.02771393 171.62806473 14.25097656 171.88720703 C15.43460785 172.13423874 15.43460785 172.13423874 16.64215088 172.38626099 C20.31449351 173.34215758 23.45778114 175.02613387 26.75 176.875 C27.69939453 177.38353516 27.69939453 177.38353516 28.66796875 177.90234375 C42.27242593 185.34095547 48.4002256 199.70715933 52.96875 214.0390625 C57.70953037 231.72919668 55.31743893 249.19448187 46.25 265.0625 C39.52696727 273.83979273 32.08500579 278.68289077 22 283 C20.37771484 283.69609375 20.37771484 283.69609375 18.72265625 284.40625 C-10.57140945 295.83128395 -45.08376548 296.12379091 -76.19921875 296.203125 C-76.96936625 296.20595238 -77.73951374 296.20877975 -78.53299904 296.21169281 C-82.5963027 296.22648478 -86.65957259 296.23584368 -90.72290039 296.24023438 C-94.864274 296.24574098 -99.00532261 296.26987301 -103.14659405 296.29820633 C-106.38722102 296.31699962 -109.62777144 296.32204673 -112.86844826 296.32357025 C-114.39395772 296.32655137 -115.91946739 296.33442093 -117.44492149 296.34775543 C-134.08453894 296.48304431 -152.68313148 294.93976942 -165.2578125 282.80859375 C-165.83273438 282.21175781 -166.40765625 281.61492187 -167 281 C-167.55429688 280.45472656 -168.10859375 279.90945313 -168.6796875 279.34765625 C-180.34991801 267.00972598 -178.49847145 248.90271737 -178.13623047 233.16210938 C-177.3215905 214.2531185 -171.46860394 194.19075334 -157.421875 180.90625 C-152.34996526 176.9141662 -146.71210861 173.9567082 -141 171 C-139.95328125 170.45601562 -138.9065625 169.91203125 -137.828125 169.3515625 C-130.07864148 165.56059894 -130.07864148 165.56059894 -125 167 C-125.25830078 168.87011719 -125.25830078 168.87011719 -126 171 C-127.68310547 172.15332031 -127.68310547 172.15332031 -129.8671875 173.078125 C-131.06456543 173.60575439 -131.06456543 173.60575439 -132.28613281 174.14404297 C-133.14045898 174.50900879 -133.99478516 174.87397461 -134.875 175.25 C-147.45348856 180.95321704 -156.42264357 186.45797239 -163 199 C-163.39832031 199.7528125 -163.79664063 200.505625 -164.20703125 201.28125 C-170.19980818 213.6708113 -171.20330552 227.10851413 -171.24023438 240.65063477 C-171.249929 242.79678281 -171.28101103 244.94196682 -171.3125 247.08789062 C-171.40350478 258.78141194 -169.95017836 268.91657253 -162 278 C-152.2918154 286.64875969 -139.22978226 289.14269286 -126.60913086 289.16113281 C-125.78676941 289.16609772 -124.96440796 289.17106262 -124.11712646 289.17617798 C-121.39969017 289.1907558 -118.68231273 289.19760316 -115.96484375 289.203125 C-115.02464449 289.20595238 -114.08444523 289.20877975 -113.11575508 289.21169281 C-108.11566007 289.22668659 -103.11559378 289.23590813 -98.11547852 289.24023438 C-94.03791145 289.24457786 -89.9605609 289.25830651 -85.88305664 289.28125 C-21.78205115 291.33125596 -21.78205115 291.33125596 35.8359375 268.15234375 C39.50363719 264.50450525 41.85473661 260.6837101 44 256 C44.41121094 255.17628906 44.82242188 254.35257813 45.24609375 253.50390625 C50.41853523 241.17237622 50.05771164 223.57083254 45.40234375 211.12890625 C44.93957031 210.09636719 44.47679687 209.06382812 44 208 C43.70496582 207.3385498 43.40993164 206.67709961 43.10595703 205.99560547 C35.9566802 190.22146394 27.70952931 183.56629024 11.5859375 177.33203125 C8.40921716 176.15200768 5.22290742 175.04620533 2 174 C2.15404297 172.99291992 2.30808594 171.98583984 2.46679688 170.94824219 C4.26104372 157.66227153 4.23355133 144.134688 4.5 130.75 C4.56951934 127.28637733 4.64189116 123.82284294 4.71875 120.359375 C4.74747444 119.05936554 4.74747444 119.05936554 4.77677917 117.73309326 C4.89670271 112.81396229 5.09785726 107.90842326 5.38249207 102.99621582 C6.14679421 89.77134621 6.18744085 76.55224136 6.18530273 63.30810547 C6.18522102 60.59547323 6.19225527 57.88300825 6.20581055 55.17041016 C7.94061721 30.62486265 7.94061721 30.62486265 1 8 C-1.66820986 5.80141028 -1.66820986 5.80141028 -3.9375 6.0625 C-9.74638542 8.70290246 -12.19301624 15.9257194 -14.421875 21.51171875 C-24.08049683 47.74937695 -26.98628604 77.5830673 -27.26036072 105.37123489 C-27.28182117 107.53412797 -27.308794 109.6968961 -27.33703613 111.85971069 C-27.40602069 117.2244617 -27.46603229 122.58930521 -27.52606201 127.9541626 C-27.57736973 132.51026387 -27.63228476 137.06629473 -27.69187927 141.62229538 C-27.71807603 143.73471611 -27.73910598 145.84714541 -27.7598877 147.95962524 C-28.00906426 167.36462567 -28.00906426 167.36462567 -30.57446289 171.59838867 C-33.95608973 173.55248225 -37.01364423 173.5172959 -40.80859375 173.42578125 C-41.95244286 173.42084908 -41.95244286 173.42084908 -43.11940002 173.41581726 C-45.55934514 173.40009635 -47.99791251 173.35616314 -50.4375 173.3125 C-52.0436083 173.30099887 -53.64972989 173.2912166 -55.25585938 173.28320312 C-83.77610509 173.06682084 -83.77610509 173.06682084 -91 167 C-96.17642575 160.78828911 -97.26170671 152.61044524 -97.78125 144.80078125 C-97.83958511 143.99707092 -97.89792023 143.1933606 -97.95802307 142.36529541 C-98.14822619 139.68159499 -98.32497609 136.99723069 -98.5 134.3125 C-98.56347626 133.37791962 -98.62695251 132.44333923 -98.69235229 131.48043823 C-100.07178675 110.99159634 -100.72294847 90.47783532 -101.265625 69.95239258 C-101.56749634 58.9844155 -101.93057444 48.05361648 -102.9453125 37.125 C-103.02181534 36.28800064 -103.09831818 35.45100128 -103.17713928 34.58863831 C-103.95074939 27.02888022 -105.32425175 20.18197089 -110.3125 14.25 C-114.15473757 12.46291276 -115.9702331 12.67990395 -120 14 C-127.50403747 19.29130847 -131.73208756 28.30633566 -134 37 C-137.89342655 62.49473388 -134.3716579 89.87471448 -127.83203125 114.65234375 C-126.20233054 121.20940246 -125.85993964 127.50295623 -125.90234375 134.21484375 C-125.9037587 135.07058487 -125.90517365 135.92632599 -125.90663147 136.80799866 C-125.9121901 139.51786931 -125.92473475 142.22765468 -125.9375 144.9375 C-125.94252035 146.78450401 -125.94708232 148.63150932 -125.95117188 150.47851562 C-125.96214595 154.98570951 -125.9793817 159.49284034 -126 164 C-129.875 163.125 -129.875 163.125 -131 162 C-131.85331519 156.33812931 -132.05017463 150.60858062 -132.10546875 144.890625 C-132.27938389 127.79412248 -134.72313084 112.14615894 -138.29101562 95.50439453 C-143.21959317 71.1432368 -147.05125774 41.00250942 -133 19 C-123.38115918 6.56506117 -123.38115918 6.56506117 -116.7890625 5.71484375 C-110.64993285 6.34648705 -106.98864334 8.26348603 -103 13 C-95.99459082 22.63243763 -96.648153 36.79612676 -96.0625 48.1875 C-95.98332648 49.63014089 -95.90388675 51.07276719 -95.82421875 52.51538086 C-95.27311119 62.72557222 -94.81939526 72.94015812 -94.37280083 83.15534782 C-94.27692896 85.34541283 -94.18042267 87.53544909 -94.08375549 89.72547913 C-94.0186172 91.20345941 -93.95350806 92.68144099 -93.88842773 94.15942383 C-93.85601392 94.89547379 -93.8236001 95.63152376 -93.79020405 96.38987827 C-93.59733108 100.78806812 -93.41121255 105.1864862 -93.22960472 109.58515453 C-94.23667398 136.96551963 -94.23667398 136.96551963 -87 162 C-81.11166769 166.1994842 -76.5871326 166.54552982 -69.47265625 166.390625 C-68.48373886 166.38496521 -67.49482147 166.37930542 -66.47593689 166.37347412 C-63.33761857 166.35120015 -60.20046943 166.30101998 -57.0625 166.25 C-54.92644886 166.22992342 -52.7903797 166.21167468 -50.65429688 166.1953125 C-45.4358034 166.15136511 -40.21798526 166.0845437 -35 166 C-34.99635437 165.21772537 -34.99270874 164.43545074 -34.98895264 163.62947083 C-34.6454919 96.49412251 -34.6454919 96.49412251 -32.0625 74.875 C-31.97713989 74.1592984 -31.89177979 73.4435968 -31.80383301 72.70620728 C-30.82552967 64.74950339 -29.48905378 56.87456775 -28 49 C-27.70029297 47.20949219 -27.70029297 47.20949219 -27.39453125 45.3828125 C-26.0336121 37.76531873 -24.06324656 30.48352997 -21.6875 23.125 C-21.41591064 22.25762207 -21.14432129 21.39024414 -20.86450195 20.49658203 C-17.68363594 10.98039256 -11.86577092 -2.21226237 0 0 Z " fill="#250EB1" transform="translate(311,53)"/>
<path d="M0 0 C4.97331603 -0.20261658 4.97331603 -0.20261658 7.2265625 1.4140625 C8.484375 3.1640625 8.484375 3.1640625 8.515625 5.1796875 C7.0274689 11.43869699 4.8503101 16.74479665 -0.515625 20.6015625 C-2.9069968 21.27413582 -5.0417253 21.20068273 -7.515625 21.1640625 C-7.48082031 22.20046875 -7.44601563 23.236875 -7.41015625 24.3046875 C-7.38201018 25.67446292 -7.35471089 27.04425591 -7.328125 28.4140625 C-7.29041992 29.43693359 -7.29041992 29.43693359 -7.25195312 30.48046875 C-7.20425041 33.75605539 -7.30477424 35.81754806 -9.02734375 38.6484375 C-9.51847656 39.14859375 -10.00960937 39.64875 -10.515625 40.1640625 C-11.505625 39.8340625 -12.495625 39.5040625 -13.515625 39.1640625 C-13.185625 32.8940625 -12.855625 26.6240625 -12.515625 20.1640625 C-14.495625 19.5040625 -16.475625 18.8440625 -18.515625 18.1640625 C-20.70751175 16.80358107 -21.35741773 15.83252383 -21.94921875 13.33203125 C-23.07186948 5.86155293 -23.07186948 5.86155293 -21.515625 3.1640625 C-14.53607975 0.37634398 -7.40098009 0.48267261 0 0 Z " fill="#220BB0" transform="translate(252.515625,282.8359375)"/>
<path d="M0 0 C0.66 0 1.32 0 2 0 C2.56267578 1.24716797 2.56267578 1.24716797 3.13671875 2.51953125 C3.64847656 3.60621094 4.16023437 4.69289063 4.6875 5.8125 C5.18636719 6.89144531 5.68523437 7.97039062 6.19921875 9.08203125 C8.14580615 12.2362629 9.7058291 13.40061549 13 15 C13.06058594 14.25234375 13.12117187 13.5046875 13.18359375 12.734375 C13.26738281 11.74953125 13.35117188 10.7646875 13.4375 9.75 C13.51871094 8.77546875 13.59992188 7.8009375 13.68359375 6.796875 C13.95074584 4.43538247 14.35371968 2.28098935 15 0 C17.475 0.495 17.475 0.495 20 1 C21.65668099 10.31883055 21.15032863 19.07592956 19.625 28.375 C19.49899414 29.1481958 19.37298828 29.9213916 19.24316406 30.71801758 C18.54709157 34.70481182 17.69827158 38.29333768 16 42 C16.495 42.495 16.495 42.495 17 43 C17.04063832 44.66617115 17.042721 46.33388095 17 48 C15.515 48.495 15.515 48.495 14 49 C14.495 46.03 14.495 46.03 15 43 C13.68 43 12.36 43 11 43 C7.66232107 36.32464213 9.99939503 25.25438602 11 18 C9.906875 17.46375 8.81375 16.9275 7.6875 16.375 C3.90478085 14.18942894 2.45588627 12.20589367 1 8 C0.51161191 5.32111881 0.23445993 2.71973515 0 0 Z " fill="#FB71CA" transform="translate(228,370)"/>
<path d="M0 0 C2.125 0.375 2.125 0.375 4 1 C5.02158677 6.98832573 5.25102928 12.86829076 5.3125 18.9375 C5.34150391 19.88818359 5.37050781 20.83886719 5.40039062 21.81835938 C5.45884078 28.34229644 4.35664453 32.39235125 1 38 C0.01 38 -0.98 38 -2 38 C-2.33 35.36 -2.66 32.72 -3 30 C-3.598125 29.896875 -4.19625 29.79375 -4.8125 29.6875 C-7.46104026 28.85510163 -8.4530279 28.32045815 -10 26 C-10.5625 22.5625 -10.5625 22.5625 -10 19 C-5.28205128 15 -5.28205128 15 -2 15 C-2.02320313 14.08476562 -2.04640625 13.16953125 -2.0703125 12.2265625 C-2.09738281 10.44378906 -2.09738281 10.44378906 -2.125 8.625 C-2.14820313 7.44164062 -2.17140625 6.25828125 -2.1953125 5.0390625 C-2 2 -2 2 0 0 Z " fill="#FF71C8" transform="translate(366,364)"/>
<path d="M0 0 C1.9375 0.3125 1.9375 0.3125 4 1 C5.42043862 5.26131585 5.43715583 9.50347102 5.71875 13.96875 C5.88824496 17.0434509 5.88824496 17.0434509 7 20 C7.99 20 8.98 20 10 20 C10.66 13.4 11.32 6.8 12 0 C13.65 0.33 15.3 0.66 17 1 C20.09560489 19.68418668 20.09560489 19.68418668 19 27 C17.48046875 28.83203125 17.48046875 28.83203125 16 30 C14.0625 29.3125 14.0625 29.3125 12 28 C11.25 25.375 11.25 25.375 11 23 C10.29875 23.103125 9.5975 23.20625 8.875 23.3125 C4.74376717 22.86345295 2.9161594 20.84988305 0 18 C-1.02319033 14.93042902 -1.13371939 12.77559677 -1.125 9.5625 C-1.12757813 8.61503906 -1.13015625 7.66757812 -1.1328125 6.69140625 C-1.01473475 4.29859541 -0.68112635 2.28663847 0 0 Z " fill="#FF71C8" transform="translate(272,372)"/>
<path d="M0 0 C3.28892295 0.91865146 4.67885814 1.43992058 6.40966797 4.45849609 C6.76689941 5.46992676 7.12413086 6.48135742 7.4921875 7.5234375 C7.88664062 8.626875 8.28109375 9.7303125 8.6875 10.8671875 C9.079375 12.02476562 9.47125 13.18234375 9.875 14.375 C10.29007813 15.52484375 10.70515625 16.6746875 11.1328125 17.859375 C14.40208824 27.2095036 14.40208824 27.2095036 13 31 C10.03162219 26.97832683 8.47610659 23.99911924 8 19 C6.35 19 4.7 19 3 19 C2.95101562 19.58007812 2.90203125 20.16015625 2.8515625 20.7578125 C2.40350595 25.43923092 1.701979 29.57485459 0 34 C-1.32 34 -2.64 34 -4 34 C-4.27783276 26.40590455 -3.83832512 18.93056132 -3.125 11.375 C-3.04652832 10.48586914 -2.96805664 9.59673828 -2.88720703 8.68066406 C-2.80325684 7.8450293 -2.71930664 7.00939453 -2.6328125 6.1484375 C-2.55949707 5.39739746 -2.48618164 4.64635742 -2.41064453 3.87255859 C-2 2 -2 2 0 0 Z " fill="#FF6BC6" transform="translate(110,364)"/>
<path d="M0 0 C3.22324465 0.82647299 4.36058947 2.04184253 6.4375 4.625 C6.93359375 7.46484375 6.93359375 7.46484375 6.875 10.5625 C6.87371094 11.58214844 6.87242187 12.60179687 6.87109375 13.65234375 C6.38947195 16.95427341 5.32582331 18.90521337 3.4375 21.625 C-0.51973818 21.3966978 -2.89246194 21.17477482 -6 18.625 C-8.13963213 14.51690631 -8.48613971 11.16357446 -7.5625 6.625 C-5.84225631 3.17041226 -3.87213011 0.94442198 0 0 Z " fill="#FF71C8" transform="translate(260.5625,373.375)"/>
<path d="M0 0 C3.22324465 0.82647299 4.36058947 2.04184253 6.4375 4.625 C6.93359375 7.46484375 6.93359375 7.46484375 6.875 10.5625 C6.87371094 11.58214844 6.87242187 12.60179687 6.87109375 13.65234375 C6.38947195 16.95427341 5.32582331 18.90521337 3.4375 21.625 C-0.51973818 21.3966978 -2.89246194 21.17477482 -6 18.625 C-8.13963213 14.51690631 -8.48613971 11.16357446 -7.5625 6.625 C-5.84225631 3.17041226 -3.87213011 0.94442198 0 0 Z " fill="#FF71C8" transform="translate(186.5625,373.375)"/>
<path d="M0 0 C0.78375 0.2475 1.5675 0.495 2.375 0.75 C3.8533226 3.70664519 3.43532783 6.49229737 3.375 9.75 C3.045 9.75 2.715 9.75 2.375 9.75 C2.045 7.11 1.715 4.47 1.375 1.75 C0.715 1.75 0.055 1.75 -0.625 1.75 C-0.625 4.72 -0.625 7.69 -0.625 10.75 C0.365 10.75 1.355 10.75 2.375 10.75 C2.375 11.41 2.375 12.07 2.375 12.75 C1.715 12.75 1.055 12.75 0.375 12.75 C0.375 20.34 0.375 27.93 0.375 35.75 C-0.615 36.245 -0.615 36.245 -1.625 36.75 C-4.28270172 34.6949897 -6.36759174 33.06019283 -7.03759766 29.64990234 C-7.1163703 27.22929528 -7.0615799 24.85610367 -6.9375 22.4375 C-6.91494141 21.60154297 -6.89238281 20.76558594 -6.86914062 19.90429688 C-6.8105061 17.85208851 -6.72083215 15.80080798 -6.625 13.75 C-7.285 13.75 -7.945 13.75 -8.625 13.75 C-8.625 13.09 -8.625 12.43 -8.625 11.75 C-7.635 11.75 -6.645 11.75 -5.625 11.75 C-5.67720703 10.70199219 -5.67720703 10.70199219 -5.73046875 9.6328125 C-5.75753906 8.72273438 -5.78460938 7.81265625 -5.8125 6.875 C-5.84730469 5.97007812 -5.88210937 5.06515625 -5.91796875 4.1328125 C-5.82128906 3.34648437 -5.72460938 2.56015625 -5.625 1.75 C-2.625 -0.25 -2.625 -0.25 0 0 Z " fill="#FF70C8" transform="translate(171.625,363.25)"/>
<path d="M0 0 C3.78320312 0.72070312 3.78320312 0.72070312 5.734375 3.234375 C7.63441182 8.88757097 7.35338926 14.330965 7.25 20.25 C7.24484375 21.44625 7.2396875 22.6425 7.234375 23.875 C7.15459389 32.69081221 7.15459389 32.69081221 6 35 C4.68 34.67 3.36 34.34 2 34 C0.28840584 26.1839773 -0.25821386 18.8002077 -0.125 10.8125 C-0.11597656 9.76513672 -0.10695312 8.71777344 -0.09765625 7.63867188 C-0.07440075 5.09219486 -0.04172569 2.54622969 0 0 Z " fill="#FF6AC5" transform="translate(140,363)"/>
<path d="M0 0 C2.475 0.495 2.475 0.495 5 1 C5 4.3 5 7.6 5 11 C6.98 9.35 8.96 7.7 11 6 C11.66 6.33 12.32 6.66 13 7 C11.68 8.32 10.36 9.64 9 11 C10.0049462 14.24674926 11.06821116 17.12631697 12.6875 20.125 C14.12380858 23.27119974 13.99828099 23.87785944 13 27 C12.18639005 25.70903219 11.37414954 24.41720125 10.5625 23.125 C10.11003906 22.40570313 9.65757812 21.68640625 9.19140625 20.9453125 C8 19 8 19 7 17 C6.34 20.63 5.68 24.26 5 28 C3.35 28.33 1.7 28.66 0 29 C0 19.43 0 9.86 0 0 Z " fill="#FF69C5" transform="translate(326,369)"/>
<path d="M0 0 C1.8125 0.1875 1.8125 0.1875 4 1 C7.06710557 4.80653184 7.35870241 7.81472395 7.29296875 12.61328125 C7.28330078 13.86044922 7.27363281 15.10761719 7.26367188 16.39257812 C7.23853516 17.68615234 7.21339844 18.97972656 7.1875 20.3125 C7.17396484 21.62541016 7.16042969 22.93832031 7.14648438 24.29101562 C7.11117443 27.52776077 7.0618528 30.76367105 7 34 C5.02 34.495 5.02 34.495 3 35 C-0.18820384 23.30991926 -0.11669 12.0190698 0 0 Z " fill="#FF69C5" transform="translate(128,363)"/>
<path d="M0 0 C3.125 0.3125 3.125 0.3125 5 1.9375 C6.39328383 4.87887697 6.34431821 7.09583296 6.125 10.3125 C5.135 9.9825 4.145 9.6525 3.125 9.3125 C1.4375 5.75 1.4375 5.75 0.125 2.3125 C-0.535 2.3125 -1.195 2.3125 -1.875 2.3125 C-1.86976318 2.96847168 -1.86452637 3.62444336 -1.85913086 4.30029297 C-1.83838728 7.26268563 -1.82534824 10.22506303 -1.8125 13.1875 C-1.80412109 14.22003906 -1.79574219 15.25257813 -1.78710938 16.31640625 C-1.78388672 17.30253906 -1.78066406 18.28867187 -1.77734375 19.3046875 C-1.77210693 20.21589355 -1.76687012 21.12709961 -1.76147461 22.06591797 C-1.875 24.3125 -1.875 24.3125 -2.875 26.3125 C-4.525 25.9825 -6.175 25.6525 -7.875 25.3125 C-8.77983637 19.94760405 -8.99803662 14.80932543 -8.9375 9.375 C-8.93298828 8.59576172 -8.92847656 7.81652344 -8.92382812 7.01367188 C-8.91216908 5.11324732 -8.89423877 3.21286294 -8.875 1.3125 C-7.6684375 1.3434375 -7.6684375 1.3434375 -6.4375 1.375 C-3.40112418 1.30094205 -3.11424006 0.33850435 0 0 Z " fill="#FF69C5" transform="translate(206.875,369.6875)"/>
<path d="M0 0 C3.5 0.25 3.5 0.25 5.5 2.25 C5.17 3.24 4.84 4.23 4.5 5.25 C3.51 4.26 2.52 3.27 1.5 2.25 C1.5 3.9 1.5 5.55 1.5 7.25 C2.923125 7.8996875 2.923125 7.8996875 4.375 8.5625 C7.5 10.25 7.5 10.25 9.5 13.25 C9.31874017 16.63351683 9.04895525 19.27407955 7.375 22.25 C4.21463405 23.93552851 1.86184724 23.13469664 -1.5 22.25 C-3.9375 20.1875 -3.9375 20.1875 -5.5 18.25 C-5.17 17.59 -4.84 16.93 -4.5 16.25 C-3.18 16.58 -1.86 16.91 -0.5 17.25 C0.16 15.93 0.82 14.61 1.5 13.25 C0.530625 12.54875 -0.43875 11.8475 -1.4375 11.125 C-3.95480837 9.03616965 -4.47278945 8.33673363 -5.5 5.0625 C-5.5 0.66419881 -4.24849838 0.30346417 0 0 Z " fill="#FF72C8" transform="translate(380.5,370.75)"/>
<path d="M0 0 C2.31 0 4.62 0 7 0 C9.45522388 19.81716418 9.45522388 19.81716418 6 25 C2.125 24.125 2.125 24.125 1 23 C-0.31304169 15.41353691 -0.1081732 7.66827809 0 0 Z " fill="#FF6EC7" transform="translate(295,371)"/>
<path d="M0 0 C0.3662584 5.49387594 0.3662584 5.49387594 -1.20703125 7.66796875 C-4.17056422 9.86963485 -6.96883501 9.52517125 -10.546875 9.42578125 C-13 9 -13 9 -16.125 6.6875 C-18 4 -18 4 -18 1 C-15.93769732 0.8309093 -13.8751477 0.66482867 -11.8125 0.5 C-10.08966797 0.36078125 -10.08966797 0.36078125 -8.33203125 0.21875 C-5.53927574 0.0354038 -2.79680188 -0.04213637 0 0 Z " fill="#F8F7FC" transform="translate(253,289)"/>
<path d="M0 0 C0.78375 0.04125 1.5675 0.0825 2.375 0.125 C2.46236736 3.85401814 2.51551482 7.58277165 2.5625 11.3125 C2.60020508 12.89514648 2.60020508 12.89514648 2.63867188 14.50976562 C2.65317383 16.04213867 2.65317383 16.04213867 2.66796875 17.60546875 C2.69153442 19.01155396 2.69153442 19.01155396 2.71557617 20.44604492 C2.31229071 23.61826811 1.17132118 25.51235754 -0.625 28.125 C-3 27.875 -3 27.875 -5.625 27.125 C-6.9375 25.0625 -6.9375 25.0625 -7.625 23.125 C-5.315 24.115 -3.005 25.105 -0.625 26.125 C-0.295 21.175 0.035 16.225 0.375 11.125 C-0.945 10.795 -2.265 10.465 -3.625 10.125 C-5.625 7.125 -5.625 7.125 -5.375 4.5625 C-4.336523 1.18744974 -3.59386412 0.17113639 0 0 Z " fill="#A87CFF" transform="translate(325.625,422.875)"/>
<path d="M0 0 C1.19496094 0.02320313 1.19496094 0.02320313 2.4140625 0.046875 C4.375 0.25 4.375 0.25 5.375 1.25 C4.92267184 7.35643016 4.92267184 7.35643016 3.1875 10.1875 C0.46412093 11.7839636 -1.53453021 11.63630872 -4.625 11.25 C-6.5 10.0625 -6.5 10.0625 -7.625 8.25 C-8 5.75 -8 5.75 -7.625 3.25 C-5.34667981 0.22185291 -3.71204139 -0.1209134 0 0 Z " fill="#1F07AF" transform="translate(189.625,280.75)"/>
<path d="M0 0 C0.66 0 1.32 0 2 0 C2.66 8.91 3.32 17.82 4 27 C1.69 26.67 -0.62 26.34 -3 26 C-5.14915785 22.77626323 -5.38286803 21.73296326 -5 18 C-4.34 17.34 -3.68 16.68 -3 16 C-2.01 16 -1.02 16 0 16 C0 10.72 0 5.44 0 0 Z " fill="#9560FF" transform="translate(209,408)"/>
<path d="M0 0 C0.66 0.66 1.32 1.32 2 2 C1.54545455 7.45454545 1.54545455 7.45454545 -1 10 C-7.07053942 10.55186722 -7.07053942 10.55186722 -10 8.8125 C-11 7 -11 7 -11 4.4375 C-10 2 -10 2 -7.75 0.6875 C-4.98748555 -0.00312861 -2.82957808 -0.30590033 0 0 Z " fill="#2009AF" transform="translate(298,280)"/>
<path d="M0 0 C1.9375 0.375 1.9375 0.375 4 1 C5.11823815 3.23647631 5.19396061 4.64891529 5.31640625 7.1328125 C5.35830078 7.93847656 5.40019531 8.74414062 5.44335938 9.57421875 C5.48267578 10.41597656 5.52199219 11.25773437 5.5625 12.125 C5.60568359 12.97449219 5.64886719 13.82398438 5.69335938 14.69921875 C5.79954236 16.79928223 5.90028497 18.89961948 6 21 C4.68 21 3.36 21 2 21 C-0.06723714 17.89914429 -0.24497423 17.27068319 -0.1953125 13.76953125 C-0.18886719 12.96708984 -0.18242187 12.16464844 -0.17578125 11.33789062 C-0.15902344 10.50451172 -0.14226562 9.67113281 -0.125 8.8125 C-0.11597656 7.96751953 -0.10695313 7.12253906 -0.09765625 6.25195312 C-0.07410703 4.16784757 -0.03823647 2.08388783 0 0 Z " fill="#FF6CC6" transform="translate(345,372)"/>
<path d="M0 0 C0.66 0 1.32 0 2 0 C2 5.94 2 11.88 2 18 C3.65 18.33 5.3 18.66 7 19 C7.96070434 21.88211302 8.10581883 23.69850044 8.0625 26.6875 C8.05347656 27.49574219 8.04445313 28.30398438 8.03515625 29.13671875 C8.02355469 29.75160156 8.01195312 30.36648438 8 31 C7.34 31 6.68 31 6 31 C5.67 27.37 5.34 23.74 5 20 C4.34 20.33 3.68 20.66 3 21 C2.53348793 23.12576782 2.53348793 23.12576782 2.375 25.5625 C2.30023438 26.38878906 2.22546875 27.21507812 2.1484375 28.06640625 C2.09945313 28.70449219 2.05046875 29.34257812 2 30 C1.34 29.67 0.68 29.34 0 29 C0 19.43 0 9.86 0 0 Z " fill="#A578FF" transform="translate(297,405)"/>
<path d="M0 0 C0.66 0 1.32 0 2 0 C2 5.94 2 11.88 2 18 C3.65 18.33 5.3 18.66 7 19 C7.96070434 21.88211302 8.10581883 23.69850044 8.0625 26.6875 C8.05347656 27.49574219 8.04445312 28.30398438 8.03515625 29.13671875 C8.02355469 29.75160156 8.01195312 30.36648438 8 31 C7.34 31 6.68 31 6 31 C5.67 27.37 5.34 23.74 5 20 C4.34 20.33 3.68 20.66 3 21 C2.53348793 23.12576782 2.53348793 23.12576782 2.375 25.5625 C2.30023438 26.38878906 2.22546875 27.21507812 2.1484375 28.06640625 C2.09945312 28.70449219 2.05046875 29.34257812 2 30 C1.34 29.67 0.68 29.34 0 29 C0 19.43 0 9.86 0 0 Z " fill="#A578FF" transform="translate(185,405)"/>
<path d="M0 0 C1.32 0 2.64 0 4 0 C4 1.98 4 3.96 4 6 C3.01 5.01 2.02 4.02 1 3 C-0.90268707 4.90268707 -0.17427843 8.15689145 -0.1875 10.6875 C-0.20167969 11.90824219 -0.21585937 13.12898438 -0.23046875 14.38671875 C-0.00356517 17.94410541 0.71459548 20.69249668 2 24 C2.99 24 3.98 24 5 24 C5.66 22.68 6.32 21.36 7 20 C7.66 20 8.32 20 9 20 C8.60000283 22.31998359 8.09432121 23.86323424 6.75 25.8125 C5 27 5 27 2.5 27.125 C0 26 0 26 -1.8125 23.3125 C-4.14591672 16.89893748 -4.44522432 8.32490259 -1.7265625 2.0703125 C-1.15679687 1.38710938 -0.58703125 0.70390625 0 0 Z " fill="#A375FF" transform="translate(266,408)"/>
<path d="M0 0 C1.32 0 2.64 0 4 0 C4 1.98 4 3.96 4 6 C3.01 5.01 2.02 4.02 1 3 C-0.90268707 4.90268707 -0.17427843 8.15689145 -0.1875 10.6875 C-0.20167969 11.90824219 -0.21585938 13.12898438 -0.23046875 14.38671875 C-0.00356517 17.94410541 0.71459548 20.69249668 2 24 C2.99 24 3.98 24 5 24 C5.66 22.68 6.32 21.36 7 20 C7.66 20 8.32 20 9 20 C8.60000283 22.31998359 8.09432121 23.86323424 6.75 25.8125 C5 27 5 27 2.5 27.125 C0 26 0 26 -1.8125 23.3125 C-4.14591672 16.89893748 -4.44522432 8.32490259 -1.7265625 2.0703125 C-1.15679687 1.38710938 -0.58703125 0.70390625 0 0 Z " fill="#A375FF" transform="translate(175,408)"/>
<path d="M0 0 C0.99 1.32 1.98 2.64 3 4 C3.66 3.67 4.32 3.34 5 3 C5.86772029 5.07772471 6.71873619 7.16243177 7.5625 9.25 C8.03816406 10.41015625 8.51382813 11.5703125 9.00390625 12.765625 C9.95770524 15.86266644 10.20983356 17.07321701 9 20 C6.03162219 15.97832683 4.47610659 12.99911924 4 8 C2.35 8 0.7 8 -1 8 C-0.67 5.36 -0.34 2.72 0 0 Z " fill="#FF8CD2" transform="translate(114,375)"/>
<path d="M0 0 C0.66 0 1.32 0 2 0 C2 4.29 2 8.58 2 13 C2.99 13 3.98 13 5 13 C5 13.66 5 14.32 5 15 C4.01 15 3.02 15 2 15 C2 18.96 2 22.92 2 27 C1.34 26.67 0.68 26.34 0 26 C0 22.7 0 19.4 0 16 C-0.66 16 -1.32 16 -2 16 C-2 15.34 -2 14.68 -2 14 C-1.34 14 -0.68 14 0 14 C0 9.38 0 4.76 0 0 Z " fill="#9B69FF" transform="translate(291,408)"/>
<path d="M0 0 C1.32 0.33 2.64 0.66 4 1 C4 4.3 4 7.6 4 11 C2.68 11.33 1.36 11.66 0 12 C-2.79921583 7.80117625 -1.86558093 5.87872887 -1 1 C-0.67 0.67 -0.34 0.34 0 0 Z " fill="#FFF9FC" transform="translate(261,378)"/>
<path d="M0 0 C1.32 0.33 2.64 0.66 4 1 C4 4.3 4 7.6 4 11 C2.68 11.33 1.36 11.66 0 12 C-2.79921583 7.80117625 -1.86558093 5.87872887 -1 1 C-0.67 0.67 -0.34 0.34 0 0 Z " fill="#FFF9FC" transform="translate(187,378)"/>
<path d="M0 0 C3.69230769 0.69230769 3.69230769 0.69230769 5 2 C5.23529412 7.52941176 5.23529412 7.52941176 4 10 C2.35 9.67 0.7 9.34 -1 9 C-1.09765625 2.84765625 -1.09765625 2.84765625 -1 1 C-0.67 0.67 -0.34 0.34 0 0 Z " fill="#9B69FF" transform="translate(283,424)"/>
<path d="M0 0 C0.33 0 0.66 0 1 0 C1 3.96 1 7.92 1 12 C-0.98 12.99 -0.98 12.99 -3 14 C-5.14915785 10.77626323 -5.38286803 9.73296326 -5 6 C-4.34 5.34 -3.68 4.68 -3 4 C-2.01 4 -1.02 4 0 4 C0 2.68 0 1.36 0 0 Z " fill="#A172FF" transform="translate(209,420)"/>
<path d="M0 0 C2.30104014 2.12251117 3.81894459 4.15548556 5.25 6.9375 C5.78367187 7.94103516 5.78367187 7.94103516 6.328125 8.96484375 C7.12634 11.38269269 6.82707306 12.63011757 6 15 C5.18639005 13.70903219 4.37414954 12.41720125 3.5625 11.125 C3.11003906 10.40570313 2.65757812 9.68640625 2.19140625 8.9453125 C1 7 1 7 0 5 C-0.33 7.64 -0.66 10.28 -1 13 C-1.33 13 -1.66 13 -2 13 C-2 9.04 -2 5.08 -2 1 C-1.34 0.67 -0.68 0.34 0 0 Z " fill="#FF7ACB" transform="translate(333,381)"/>
<path d="M0 0 C0 2.97 0 5.94 0 9 C-0.66 9 -1.32 9 -2 9 C-2 6.03 -2 3.06 -2 0 C-2.99 0.495 -2.99 0.495 -4 1 C-4.46523063 2.89533342 -4.46523063 2.89533342 -4.625 5.0625 C-4.74875 6.361875 -4.8725 7.66125 -5 9 C-5.66 9 -6.32 9 -7 9 C-7.33 5.7 -7.66 2.4 -8 -1 C-4 -2 -4 -2 0 0 Z " fill="#9E6DFF" transform="translate(240,425)"/>
<path d="M0 0 C0.78375 0.04125 1.5675 0.0825 2.375 0.125 C1.385 0.62 1.385 0.62 0.375 1.125 C0.375 3.435 0.375 5.745 0.375 8.125 C-1.605 9.115 -1.605 9.115 -3.625 10.125 C-5.625 7.125 -5.625 7.125 -5.375 4.5625 C-4.336523 1.18744974 -3.59386412 0.17113639 0 0 Z " fill="#A97EFF" transform="translate(325.625,422.875)"/>
<path d="M0 0 C1.65 0 3.3 0 5 0 C7 2 7 2 7.1953125 4.1640625 C7.17210937 4.97617187 7.14890625 5.78828125 7.125 6.625 C7.10695313 7.44226563 7.08890625 8.25953125 7.0703125 9.1015625 C7.03550781 10.04128906 7.03550781 10.04128906 7 11 C6.34 11 5.68 11 5 11 C5 8.03 5 5.06 5 2 C4.34 2 3.68 2 3 2 C2.67 4.97 2.34 7.94 2 11 C1.34 11 0.68 11 0 11 C0 7.37 0 3.74 0 0 Z " fill="#9B68FF" transform="translate(312,423)"/>
<path d="M0 0 C0.99 0.33 1.98 0.66 3 1 C2.45276317 4.37462715 1.9451 6.08235 0 9 C1.32 9 2.64 9 4 9 C4 8.34 4 7.68 4 7 C4.66 7 5.32 7 6 7 C5.34 8.32 4.68 9.64 4 11 C-0.875 10.125 -0.875 10.125 -2 9 C-2.1875 5.5625 -2.1875 5.5625 -2 2 C-1.34 1.34 -0.68 0.68 0 0 Z " fill="#9763FF" transform="translate(224,423)"/>
<path d="M0 0 C0.99 0.33 1.98 0.66 3 1 C3 1.66 3 2.32 3 3 C1.68 3 0.36 3 -1 3 C-1 3.99 -1 4.98 -1 6 C0.32 6 1.64 6 3 6 C2.67 7.65 2.34 9.3 2 11 C0.35 11.33 -1.3 11.66 -3 12 C-3 11.34 -3 10.68 -3 10 C-1.68 10 -0.36 10 1 10 C1 9.34 1 8.68 1 8 C-0.32 7.67 -1.64 7.34 -3 7 C-2.625 4.0625 -2.625 4.0625 -2 1 C-1.34 0.67 -0.68 0.34 0 0 Z " fill="#A070FF" transform="translate(250,422)"/>
<path d="M0 0 C2.8125 -0.25 2.8125 -0.25 6 0 C7.875 1.625 7.875 1.625 9 4 C9.1875 7.25 9.1875 7.25 9 10 C8.01 9.67 7.02 9.34 6 9 C4.3125 5.4375 4.3125 5.4375 3 2 C2.34 2 1.68 2 1 2 C0.01 3.485 0.01 3.485 -1 5 C-0.67 3.35 -0.34 1.7 0 0 Z " fill="#FF78CA" transform="translate(204,370)"/>
<path d="M0 0 C0.99 0 1.98 0 3 0 C3 2.64 3 5.28 3 8 C1.35 8 -0.3 8 -2 8 C-2.125 5.125 -2.125 5.125 -2 2 C-1.34 1.34 -0.68 0.68 0 0 Z " fill="#FFF2FA" transform="translate(361,381)"/>
<path d="M0 0 C1.98 0 3.96 0 6 0 C6.33 0.66 6.66 1.32 7 2 C6.01 2.33 5.02 2.66 4 3 C3.67 5.97 3.34 8.94 3 12 C2.34 12 1.68 12 1 12 C0.67 8.04 0.34 4.08 0 0 Z " fill="#9F6FFF" transform="translate(214,422)"/>
<path d="M0 0 C1.32 0 2.64 0 4 0 C4 1.98 4 3.96 4 6 C3.01 5.01 2.02 4.02 1 3 C-0.27253436 6.64793184 -1.32829194 10.1936543 -2 14 C-2.33 14 -2.66 14 -3 14 C-3.25684171 9.63369099 -3.4224636 6.03503582 -1.75 1.9375 C-1.1725 1.298125 -0.595 0.65875 0 0 Z " fill="#9762FF" transform="translate(266,408)"/>
<path d="M0 0 C1.32 0 2.64 0 4 0 C4 1.98 4 3.96 4 6 C3.01 5.01 2.02 4.02 1 3 C-0.27253436 6.64793184 -1.32829194 10.1936543 -2 14 C-2.33 14 -2.66 14 -3 14 C-3.25684171 9.63369099 -3.4224636 6.03503582 -1.75 1.9375 C-1.1725 1.298125 -0.595 0.65875 0 0 Z " fill="#9762FF" transform="translate(175,408)"/>
<path d="M0 0 C2.3125 -0.25 2.3125 -0.25 5 0 C7.65315971 2.37869491 7.98103345 3.67124653 8.1875 7.25 C8.125625 8.1575 8.06375 9.065 8 10 C5.30537425 7.48501596 3.55291561 5.3276763 2 2 C1.34 1.34 0.68 0.68 0 0 Z " fill="#FF6FC7" transform="translate(302,370)"/>
<path d="M0 0 C0.66 0 1.32 0 2 0 C2 6.27 2 12.54 2 19 C1.67 19 1.34 19 1 19 C1 15.7 1 12.4 1 9 C-0.32 8.67 -1.64 8.34 -3 8 C-2.34 7.67 -1.68 7.34 -1 7 C-0.59270772 4.67843403 -0.25561323 2.3431213 0 0 Z " fill="#8E55FF" transform="translate(326,424)"/>
<path d="M0 0 C0.99 0.33 1.98 0.66 3 1 C4.28317892 4.84953676 4.06643637 7.94738135 4 12 C3.01 12 2.02 12 1 12 C0.67 8.04 0.34 4.08 0 0 Z " fill="#EBE1FF" transform="translate(211,421)"/>
<path d="M0 0 C1.32 0.33 2.64 0.66 4 1 C4 2.65 4 4.3 4 6 C2.68 5.67 1.36 5.34 0 5 C0 3.35 0 1.7 0 0 Z " fill="#F0E8FF" transform="translate(206,426)"/>
<path d="M0 0 C0.66 0 1.32 0 2 0 C2 2.97 2 5.94 2 9 C1.01 9 0.02 9 -1 9 C-1.125 2.25 -1.125 2.25 0 0 Z " fill="#F2ECFF" transform="translate(315,425)"/>
<path d="M0 0 C0.99 0 1.98 0 3 0 C2.67 2.97 2.34 5.94 2 9 C1.34 9 0.68 9 0 9 C0 6.03 0 3.06 0 0 Z " fill="#935CFF" transform="translate(312,425)"/>
<path d="M0 0 C0.66 0.66 1.32 1.32 2 2 C1.360625 2.226875 0.72125 2.45375 0.0625 2.6875 C-2.27193661 3.85250896 -2.27193661 3.85250896 -2.75 6.625 C-2.8325 7.40875 -2.915 8.1925 -3 9 C-3.99 8.01 -4.98 7.02 -6 6 C-4.95125002 3.37812506 -4.35068687 2.20628639 -1.875 0.75 C-1.25625 0.5025 -0.6375 0.255 0 0 Z " fill="#FF83CF" transform="translate(362,379)"/>
<path d="M0 0 C0.66 0 1.32 0 2 0 C2 1.98 2 3.96 2 6 C1.01 6 0.02 6 -1 6 C-1.042721 4.33388095 -1.04063832 2.66617115 -1 1 C-0.67 0.67 -0.34 0.34 0 0 Z " fill="#E2D4FF" transform="translate(284,426)"/>
<path d="M0 0 C0.99 0.33 1.98 0.66 3 1 C3 2.65 3 4.3 3 6 C2.01 6 1.02 6 0 6 C0 4.02 0 2.04 0 0 Z " fill="#F7F3FF" transform="translate(323,425)"/>
<path d="M0 0 C0.66 0 1.32 0 2 0 C2.33 1.98 2.66 3.96 3 6 C2.34 6 1.68 6 1 6 C0.67 6.99 0.34 7.98 0 9 C0 6.03 0 3.06 0 0 Z " fill="#FFE7F5" transform="translate(171,365)"/>
<path d="M0 0 C0.99 0.33 1.98 0.66 3 1 C2.67 2.65 2.34 4.3 2 6 C1.01 5.67 0.02 5.34 -1 5 C-0.67 3.35 -0.34 1.7 0 0 Z " fill="#A97EFF" transform="translate(224,423)"/>
</svg>
