<?xml version="1.0" encoding="UTF-8" standalone="no"?>
<!-- Created with Inkscape (http://www.inkscape.org/) -->

<svg
   width="94.592461mm"
   height="108.32363mm"
   viewBox="0 0 94.592461 108.32363"
   version="1.1"
   id="svg1"
   xmlns="http://www.w3.org/2000/svg"
   xmlns:svg="http://www.w3.org/2000/svg">
  <defs
     id="defs1" />
  <g
     id="layer1"
     transform="translate(-54.41609,-55.433223)">
    <g
       id="g49"
       transform="translate(7.119863)">
      <ellipse
         style="fill:#000000;stroke-width:3.72104"
         id="path1"
         cx="94.846748"
         cy="112.39213"
         rx="33.819351"
         ry="30.513699" />
      <path
         style="fill:#ffd42a;stroke-width:3"
         d="m 85.438355,80.861301 11.696916,-25.428082 8.645549,30.005136 16.78253,-8.645546 v 17.291094 l 19.32535,1.017122 -13.2226,12.714045 12.20547,11.18835 -19.8339,7.11987 18.81678,14.74828 -28.47945,-2.5428 0.50856,25.42808 -14.748289,-21.35959 -7.628424,15.25685 -4.577053,-16.27398 -13.731166,16.27398 3.051371,-21.35959 -18.308219,7.11986 8.136987,-17.29109 -16.782534,-7.62843 13.222603,-9.66267 L 49.33048,94.083903 68.14726,92.049657 65.60445,73.232877 Z"
         id="path47" />
      <ellipse
         style="fill:#d4aa00;stroke-width:2.50098"
         id="path48"
         cx="95.355309"
         cy="112.13784"
         rx="26.699488"
         ry="28.22517" />
      <ellipse
         style="fill:#ffff00;stroke-width:3.3106"
         id="path49"
         cx="95.355301"
         cy="112.13784"
         rx="25.173801"
         ry="26.699488" />
    </g>
  </g>
</svg>
